<svg xmlns="http://www.w3.org/2000/svg" viewBox="0 0 830 830">
    <path stroke="#000"
          d="m710 18 5 1h-5v-1Zm-3 1 1 1-2 1 1-2Zm11 0 1 2-1-2Zm-17 6-1 2 1-2Zm-4 7v7h-1l1-7Zm2 10 1 2-1-2Zm15 16 2 3-2-3Zm45 2 1 2-1-2Zm-41 2 3 4-3-4Zm5 5 5 7-3 2 2-3-4-6Zm52 9 1 2-1-2Zm-52 2-1 2 1-2Zm55 1 6 7-6-7Zm-61 5-4 5 4-5Zm69 3 1 2-1-2Zm-193 1-1 2 1-2Zm14 1 7 8-7-8Zm182 1 22 23-22-23Zm-205 6-4 5 4-5Zm112 10-13 14 13-14Zm69 2 4 5-4-5Zm-5 1-38 39 38-39Zm53 5 3 4-3-4Zm-232 1 26 28h-1l-25-28Zm193 2 20 21-20-21Zm-663 7 3 1h-3v-1Zm438 0 2 1h-2v-1Zm11 3 1 2-1-2Zm84 0 15 16-15-16Zm-78 6 1 2-1-2Zm249 0-1 2 1-2Zm-735 5-4 5 4-5Zm-7 8-1 2 1-2Zm530 0-33 34 33-34Zm116 4-5 6 5-6Zm-8 8-1 2 1-2Zm-8 8-5 6 5-6Zm-641 7v3h-1l1-3Zm634 0-1 2 1-2Zm-2 4 16 17-16-17Zm-91 2-23 24 4 5-5-4 24-25Zm-384 1 3 4-3-4Zm-68 1 2 3-2-3Zm138 0 1 2-1-2Zm-172 9v5h-1l1-5Zm69 0v5h-1l1-5Zm108 0v5h-1l1-5Zm368 5 33 35-8 7 7-8-32-34Zm52 2 2 3-2-3Zm-594 4 2 3-2-3Zm33 0-2 3 2-3Zm36 0 3 4-3-4Zm33 0-3 4 3-4Zm36 0 2 3-2-3Zm33 0-2 3 2-3Zm-12 6 2 1h-2v-1Zm307 2 14 15-14-15Zm-57 12-5 6 5-6Zm73 4 4 5-4-5Zm140 1 4 5-4-5Zm-680 1v11h-1l1-11Zm460 1-1 2 1-2Zm-4 4-2 3 2-3Zm90 1v4h-1l1-4Zm142 1 1 2-1-2Zm-64 4-1 2 1-2Zm-624 2v6h-1l1-6Zm621 1-41 42 41-42Zm-78 1-1 2 1-2Zm-67 4 6 7-6-7Zm55 0 6 1h-6v-1Zm118 0-2 3 2-3Zm48 0v4h-1l1-4Zm-697 1v6h-1l1-6Zm440 1-62 63 62-63Zm205 2-1 2 1-2Zm-645 4v464h-1l1-464Zm641 0-1 2 1-2Zm-593 4 350 1H110v-1Zm441 1 2 3-2-3Zm147 0-37 38 37-38Zm-599 3-2 3 2-3Zm631 2 1 2-1-2Zm-173 1 1 2-1-2Zm-44 5-1 2 1-2Zm49 0 8 9-8-9Zm-21 11 1 2-1-2Zm31 1v4h-1l1-4Zm-28 2 1 2-1-2Zm157 0-1 2 1-2Zm-203 3 1 2-1-2Zm51 2 2 3-2-3Zm148 2v219h-1l1-219Zm29 0v3h-1l1-3Zm-159 2-1 2 1-2Zm92 5-2 3 2-3Zm-4 4-5 6 5-6Zm-141 1 5 6-5-6Zm-17 14 13 14-13-14Zm30 0v3h-1l1-3Zm76 5-46 47 46-47Zm-87 10 2 1h-2v-1Zm-92 27-1 2 1-2Zm-33 1-1 2 1-2Zm28 4-2 3 2-3Zm136 6-1 2 1-2Zm30 3-55 56 55-56Zm-159 7 1 2-1-2Zm-20 18-1 2 1-2Zm-3 3-1 2 1-2Zm47 3 1 2-1-2Zm7 7 2 3-2-3Zm4 4 2 3-2-3Zm-73 1-4 5 4-5Zm78 4 1 2-1-2Zm-85 3-1 2 1-2Zm147 7-4 5 4-5Zm-51 1 7 8-7-8Zm43 7-4 5 4-5Zm-139 1 9 10-9-10Zm131 7-15 16 15-16Zm-51 3 13 13-12-12-26 25 25-26Zm-71 1-41 42 41-42Zm93 15 5 1h-5v-1Zm-76 1-2 3 2-3Zm10 9 1 2-1-2Zm-22 3-1 2 1-2Zm28 0 5 1h-5v-1Zm-32 4-1 2 1-2Zm-4 4-1 2 1-2Zm-40 7-3 4 3-4Zm32 1-1 2 1-2Zm-41 8-1 2 1-2Zm17 16-1 2 1-2Zm342 0v3h-1l1-3Zm-348 6-3 4 3-4Zm-10 10-1 2 1-2Zm-4 4-5 6 5-6Zm58 1-1 2 1-2Zm11 0 1 2-1-2Zm138 1-1 2 1-2Zm16 2 4 5-4-5Zm-171 2-3 4 3-4Zm23 1 1 2-1-2Zm-83 1-4 5 4-5Zm240 4 5 6-5-6Zm-247 3-6 7 6-7Zm55 2-3 4 3-4Zm159 0 1 3-2-1 1-2Zm-121 1-1 2 1-2Zm165 4 3 4-3-4Zm-266 1-6 7 6-7Zm227 0 7 8-7-8Zm-132 1-4 5 4-5Zm-44 4-5 6 5-6Zm-59 3-3 4 3-4Zm284 0 3 4-3-4Zm-193 4-5 6 5-6Zm157 0 3 4-3-4Zm-253 1-6 7 6-7Zm300 5 4 5-4-5Zm-251 1-5 6 5-6Zm-57 2-1 2 1-2Zm273 2 4 5-4-5Zm-182 1-4 5 4-5Zm228 4 4 5-4-5Zm-327 1-1 2 1-2Zm52 2-5 6 5-6Zm240 2 3 4-3-4Zm-207 4-3 4 3-4Zm252 0 3 4-3-4Zm-35 5 4 6h-1l-3-6Zm-318 3-1 2 1-2Zm56 0v4h-1l1-4Zm39 4 9 10-9-10Zm261 3-4 5 4-5Zm-364 1-1 2 1-2Zm323 0-4 5 4-5Zm-252 3 8 9-8-9Zm-75 1-5 6 5-6Zm-31 1v6h-1l1-6Zm389 3-6 7 6-7Zm-42 2-5 6 5-6Zm-323 1-5 6 5-6Zm132 2 6 7-6-7Zm-32 7 6 7-6-7Zm251 1-5 6 5-6Zm-41 1-5 6 5-6Zm-164 4 5 6-5-6Zm193 6-4 5 4-5Zm-43 3-4 5 4-5Zm-179 1 4 5-4-5Zm208 9-6 7 6-7Zm-196 2 7 8-7-8Zm320 5v4h-1l1-4Zm-160 2 2 3-2-3Zm23 3-4 5 4-5Zm-18 2 3 4-3-4Zm-151 1 1 2-1-2Zm13 0-1 2 1-2Zm293 2v42h-1l1-42Zm-300 1 2 1h-2v-1Zm151 0 4 1h-4v-1Zm-116 23 2 4-3-2 1-2Zm25 1-1 2 1-2ZM93 714v6h-1l1-6Zm633 7v3h-1l1-3Zm-626 13 3 4-3-4Zm582 6-1 2h-2l3-2Zm-609 9 1 2-1-2Zm4 5 7 8-7-8Zm635 0-5 6 5-6Zm-9 8-1 2 1-2Zm-616 1 1 2-1-2Zm25 11 2 1h-2v-1Zm563 0 2 1h-2v-1Z"
          opacity=".9"/>
    <path stroke="#000"
          d="M709 19q8-2 11 2l38 39 2 2 3 2 6 8 5 4 2 2q2-1 1 2l8 6 2 3q2-1 1 2l23 22h1l5 7 1 8-7 9-6 3h-6l-3-1-22-22h-2q1-3-1-2l-6-7-4-1q1 3-1 2l-40 41-7 6-1 2-3 2-5 6-7 6q1 2-1 1l-3 5 41 41v1l7 6 5 5q2-1 1 2h2v2l7 6q3 3 2 11l-13 14-8 2-8-4-18-18-3 4-3 2-1 2-3 2-2 3-39 38q1 2-1 1l-3 4-7 6-1 2q-3-1-2 2h-2v2l-6 4v2L529 429v1l-6 5-2 3-6 5v1h-2q1 3-1 2l-17 17q-5 3-14 2l-5-2-15-14-27 27q-4 4-13 2l-14-12-11 12-3 2-1 2-3 2-1 2-3 2-5 6-3 2-21 22-3 2-3 4-5 4-1 2q-3-1-2 2l-5 4-1 2-7 6-1 2-6 5-1 2-8 7q1 2-1 1l-7 8-5 4q1 2-1 1l-7 8-3 2-5 6-3 2-13 14-3 2-3 4-3 2-3 4-7 6q1 2-1 1-4 8-16 8l-6-3q-3-4-2-11l2-4 164-164v-2l-10-10q-3-4-2-11l5-7 5-4 11-12 3-2 1-3 3-1 1-2-17-17-3-7v-5l4-8 113-114q2 1 1-1l8-7 2-3 3-2 2-3 2-1q-1-3 2-2l12-13q2 1 1-1l69-70q2 1 1-1l-29-29-1-8 14-15q2-4 9-4l5 2 38 39 16 16 5-3v-1l64-66-31-32V31l8-10 4-2Zm-85 139-45 45 5 5q2-1 1 2l15 14h1l6 9-1 8-6 5q-7 1-10-1l-25-26-21 21h-2l-5 7 11 10 2 3 4 2 4 5q2-1 1 2h2l10 13q1 7-2 10l-7 4q-7 1-9-3-3 1-2-1l-3-3-4-5q-3 1-2-1l-18-17q1-3-2-2v-2l-9 8-16 18 3 1 13 15 7 5q6 3 7 12l-2 7-5 4-9-1-15-14-7-8-4-2q1-3-2-2v-2h-2l-30 30q-3-1-2 2l-8 6-6 8q-3-1-2 2l-9 8-2 3-3 2-5 6 4 3q-1 2 2 1l5 7 16 15q-1 2 2 1l6 8 3 1 7 8q2-1 1 2l4 2 1 3 9 8 2 3 9 8h2v-1l17-17q2 1 1-1l15-15h1v-1l82-83 4-3v-1l76-76v-2l3-1q-1-3 2-2l7-8-71-71Z"/>
    <path stroke="#000"
          d="M115 124h433l9 2 8 7 4 7v8l-3 6-13 13q-3-1-2 2l-90 89H110l-8 2-6 5-4 8v14l-1 1 1 3v429q3 12 11 18l12 6h559l7-2 7-5 7-11 2-8V290l6-7q4-3 13-2l7 5 3 9v426l-2 10-6 15-14 16-15 9-15 4H115l-10-2-12-5-19-16q-9-12-12-28V255l-1-1q2-2 1-6v-2l-1-7 1-1v-10l-1-3 1-3-1-3 1-5-1-3v-32l1-1v-2l1-10 7-16 14-15 15-8 16-3Zm15 53-5 2q-7 4-9 12v4l3 7 11 6q14 2 21-4l5-8q1-9-3-12-6-9-23-7Zm69 0-10 5-4 9v4l3 7q4 4 11 6 13 2 20-3l6-9q1-9-3-12-6-9-23-7Zm69 0-5 2-7 7-2 7 3 9 11 6q14 2 21-4l5-9q0-8-4-12-6-8-22-6Z"/>
    <path stroke="#000"
          d="M499 508q13-2 18 5l1 6-60 180-4 5q-5 3-13 2l-6-2-3-2-1-8 62-184 6-2Zm-102 30q9 0 12 7l4 6v5l-5 6-48 44h-2v2l13 12 30 28q-1 2 2 1l8 9 1 7q-2 6-7 9-3 4-10 3l-5-3-25-24h-2q1-3-1-2l-38-35-1-8 6-7 42-39 10-8 2-3q5-7 14-10Zm150 0 7 1 70 65 1 5-1 3-10 10-59 54-9 1-7-5q-5-4-5-11l5-7 49-45h1l-4-6-50-44-2-7 7-10 7-4Z"/>
</svg>