<svg width="1024" height="1024" version="1.1" xmlns="http://www.w3.org/2000/svg" desc="Created with imagetracer.js version 1.2.6" ><path fill="rgb(0,0,0)" stroke="rgb(0,0,0)" stroke-width="1" opacity="0.9764705882352941" d="M 780.5 116 L 788.5 117 L 887 215.5 Q 890.2 218.8 889 226.5 L 884.5 233 L 876.5 238 L 868.5 238 L 864.5 236 L 833.5 205 L 764 274.5 L 775 285.5 Q 774.3 287.8 776.5 287 L 783.5 295 L 786 296.5 L 828 339.5 L 830 347.5 L 829 350.5 L 814.5 365 L 805.5 366 L 801.5 364 L 781.5 345 L 567.5 560 L 558.5 564 L 553.5 564 L 544.5 560 L 531.5 548 L 506.5 573 L 498.5 577 L 493.5 577 L 488.5 575 L 477.5 565 L 314.5 728 L 305.5 732 Q 298.9 731.1 296 726.5 Q 293.4 723.6 294 717.5 L 296 713.5 L 416 593.5 L 416 592 L 422 587.5 L 461 547.5 L 458 543 L 451 537.5 Q 447.5 533.5 449 524.5 L 478 494.5 L 460 476.5 Q 456.5 472.5 458 463.5 L 460 459.5 L 645 273.5 L 677 239.5 L 659 221.5 L 659 220 L 651 213.5 Q 646.7 210.3 648 201.5 L 653.5 195 L 663.5 186 Q 666.2 183.2 672.5 184 L 685 194.5 L 686.5 197 Q 688.8 196.3 688 198.5 L 730.5 241 L 755 216.5 L 787.5 182 L 792 178.5 L 793.5 176 L 798 172.5 L 798 170.5 L 792.5 164 L 789 161.5 L 769 140.5 Q 766 137.5 767 130.5 Q 769.9 122.4 776.5 118 L 780.5 116 Z M 695 256 L 672 279 Q 673 281 671 280 L 668 284 L 663 288 L 651 301 L 677 328 L 679 332 Q 679 338 676 341 L 669 345 L 662 344 L 636 318 L 609 344 L 641 377 L 643 382 L 641 389 L 634 394 Q 627 395 624 392 L 593 361 L 568 385 L 596 413 L 598 417 L 597 425 Q 594 429 588 431 L 580 428 L 553 401 L 486 467 L 555 537 Q 554 539 557 538 L 712 382 Q 711 379 714 380 L 765 328 L 735 295 Q 732 296 733 294 L 695 256 Z " /><path fill="rgb(0,0,0)" stroke="rgb(0,0,0)" stroke-width="1" opacity="0.9764705882352941" d="M 182.5 222 L 621.5 222 Q 633.1 223.9 638 232.5 Q 641.7 236.8 640 246.5 L 638 250.5 L 532.5 356 L 530.5 357 L 177.5 357 Q 169.4 358.4 166 364.5 L 163 371.5 L 163 812.5 Q 165.8 814.3 164 820.5 L 167 827.5 L 175.5 837 L 187.5 842 L 743.5 842 Q 755.8 839.3 762 830.5 L 767 819.5 L 767 792.5 L 768 791.5 L 768 592.5 L 767 591.5 L 767 390.5 L 771.5 382 Q 776.3 377.3 787.5 379 L 795 384.5 L 797 389.5 L 797 821.5 Q 792.4 844.9 777.5 858 Q 765.9 869.4 746.5 873 L 182.5 873 Q 159.5 868 147 852.5 L 137 836.5 L 133 823.5 Q 134.8 817.2 132 815.5 L 132 271.5 Q 135.7 249.2 149.5 237 Q 156.5 230 166.5 226 L 182.5 222 Z M 203 275 L 195 278 L 188 287 L 189 298 Q 193 304 203 306 Q 214 307 220 303 Q 225 300 227 293 Q 228 286 225 284 Q 219 274 203 275 Z M 272 275 L 264 278 L 257 287 L 258 298 Q 262 304 272 306 L 280 306 L 289 303 Q 294 300 296 293 Q 297 286 294 284 L 288 277 L 281 275 L 272 275 Z M 341 275 L 333 278 L 326 287 L 327 298 Q 331 304 341 306 Q 352 307 358 303 Q 363 301 364 295 Q 365 286 362 283 Q 356 274 341 275 Z " /><path fill="rgb(0,0,0)" stroke="rgb(0,0,0)" stroke-width="1" opacity="0.9764705882352941" d="M 568.5 606 L 582.5 606 L 587 608 L 589 611.5 L 589 617.5 L 548 738.5 L 545 750.5 L 543 753.5 L 542 759.5 L 540 762.5 L 540 765.5 L 527 801 Q 521.9 805.7 509.5 804 L 503 800.5 L 501 794.5 L 562 611.5 L 565.5 607 L 568.5 606 Z " /><path fill="rgb(0,0,0)" stroke="rgb(0,0,0)" stroke-width="1" opacity="0.9764705882352941" d="M 465.5 636 L 474.5 637 L 482 644.5 L 485 651.5 L 484 654.5 L 473.5 665 L 429 705.5 L 479.5 753 L 481 753 L 483 756.5 L 483 763.5 L 473.5 774 L 467.5 776 L 462.5 774 L 453.5 766 L 394 709.5 L 393 704.5 L 394 701.5 L 404.5 691 L 465.5 636 Z " /><path fill="rgb(0,0,0)" stroke="rgb(0,0,0)" stroke-width="1" opacity="0.9764705882352941" d="M 615.5 636 L 623.5 636 L 694 699.5 Q 696.7 701.8 696 707.5 L 690.5 715 L 626.5 774 Q 624.2 776.7 618.5 776 Q 611 773 607 766.5 Q 604.2 763.8 605 757.5 L 613.5 748 L 660 705.5 L 605 655.5 L 604 647.5 L 612.5 638 L 615.5 636 Z " /><path fill="rgb(0,0,0)" stroke="rgb(0,0,0)" stroke-width="1" opacity="0" d="M 0 0 L 1024 0 L 1024 1024 L 0 1024 L 0 0 Z M 781 116 L 777 118 Q 770 122 767 131 Q 766 138 769 141 L 789 162 L 793 164 L 798 171 L 798 173 L 794 176 L 792 179 L 788 182 L 755 217 L 731 241 L 688 199 Q 689 196 687 197 L 685 195 L 673 184 Q 666 183 664 186 L 654 195 L 648 202 Q 647 210 651 214 L 659 220 L 659 222 L 677 240 L 645 274 L 460 460 L 458 464 Q 457 473 460 477 L 478 495 L 449 525 Q 448 534 451 538 L 458 543 L 461 548 L 422 588 L 416 592 L 416 594 L 296 714 L 294 718 Q 293 724 296 727 Q 299 731 306 732 L 315 728 L 478 565 L 489 575 L 494 577 L 499 577 L 507 573 L 532 548 L 545 560 L 554 564 L 559 564 L 568 560 L 782 345 L 802 364 L 806 366 L 815 365 L 829 351 L 830 348 L 828 340 L 786 297 L 784 295 L 777 287 Q 774 288 775 286 L 764 275 L 834 205 L 865 236 L 869 238 L 877 238 L 885 233 L 889 227 Q 890 219 887 216 L 789 117 L 781 116 Z M 183 222 L 167 226 Q 157 230 150 237 Q 136 249 132 272 L 132 816 Q 135 817 133 824 L 137 837 L 147 853 Q 160 868 183 873 L 747 873 Q 766 869 778 858 Q 792 845 797 822 L 797 390 L 795 385 L 788 379 Q 776 377 772 382 L 767 391 L 767 592 L 768 593 L 768 792 L 767 793 L 767 820 L 762 831 Q 756 839 744 842 L 188 842 L 176 837 L 167 828 L 164 821 Q 166 814 163 813 L 163 372 L 166 365 Q 169 358 178 357 L 531 357 L 533 356 L 638 251 L 640 247 Q 642 237 638 233 Q 633 224 622 222 L 183 222 Z M 569 606 L 566 607 L 562 612 L 501 795 L 503 801 L 510 804 Q 522 806 527 801 L 540 766 L 540 763 L 542 760 L 543 754 L 545 751 L 548 739 L 589 618 L 589 612 L 587 608 L 583 606 L 569 606 Z M 466 636 L 405 691 L 394 702 L 393 705 L 394 710 L 454 766 L 463 774 L 468 776 L 474 774 L 483 764 L 483 757 L 481 753 L 480 753 L 429 706 L 474 665 L 484 655 L 485 652 L 482 645 L 475 637 L 466 636 Z M 616 636 L 613 638 L 604 648 L 605 656 L 660 706 L 614 748 L 605 758 Q 604 764 607 767 Q 611 773 619 776 Q 624 777 627 774 L 691 715 L 696 708 Q 697 702 694 700 L 624 636 L 616 636 Z " /><path fill="rgb(0,0,0)" stroke="rgb(0,0,0)" stroke-width="1" opacity="0" d="M 694.5 256 L 733 293.5 Q 732.3 295.8 734.5 295 L 765 327.5 L 713.5 380 Q 711.3 379.3 712 381.5 L 556.5 538 Q 554.3 538.8 555 536.5 L 486 466.5 L 552.5 401 L 579.5 428 L 587.5 431 Q 594 429.5 597 424.5 L 598 416.5 L 596 412.5 L 568 384.5 L 592.5 361 L 623.5 392 Q 626.5 395 633.5 394 L 641 388.5 L 643 381.5 L 641 376.5 L 609 343.5 L 635.5 318 L 661.5 344 L 668.5 345 L 676 340.5 Q 679 337.5 679 331.5 L 677 327.5 L 651 300.5 L 662.5 288 L 668 283.5 L 670.5 280 Q 672.8 280.8 672 278.5 L 694.5 256 Z " /><path fill="rgb(0,0,0)" stroke="rgb(0,0,0)" stroke-width="1" opacity="0" d="M 202.5 275 Q 219.5 273.5 225 283.5 Q 227.6 286.4 227 292.5 Q 225.2 299.7 219.5 303 Q 213.7 307.2 202.5 306 Q 193.3 304.3 189 297.5 L 188 286.5 L 194.5 278 L 202.5 275 Z " /><path fill="rgb(0,0,0)" stroke="rgb(0,0,0)" stroke-width="1" opacity="0" d="M 271.5 275 L 280.5 275 L 287.5 277 L 294 283.5 Q 296.6 286.4 296 292.5 Q 294.2 299.7 288.5 303 L 279.5 306 L 271.5 306 Q 262.3 304.3 258 297.5 L 257 286.5 L 263.5 278 L 271.5 275 Z " /><path fill="rgb(0,0,0)" stroke="rgb(0,0,0)" stroke-width="1" opacity="0" d="M 340.5 275 Q 356.5 273.5 362 282.5 Q 365.3 286.2 364 294.5 Q 362.6 300.6 357.5 303 Q 351.7 307.2 340.5 306 Q 331.3 304.3 327 297.5 L 326 286.5 L 332.5 278 L 340.5 275 Z " /></svg>